<?xml version="1.0" encoding="UTF-8" standalone="no"?>
<!DOCTYPE svg PUBLIC "-//W3C//DTD SVG 1.1//EN" "http://www.w3.org/Graphics/SVG/1.1/DTD/svg11.dtd">
<svg xmlns="http://www.w3.org/2000/svg" version="1.1" viewBox="0.00 0.00 448.00 320.00">
<path fill="#000000" d="
  M 365.10 268.14
  A 21.35 21.35 0.0 0 1 343.75 289.49
  L 88.53 289.49
  A 21.35 21.35 0.0 0 1 67.18 268.14
  L 67.18 63.60
  A 21.35 21.35 0.0 0 1 88.53 42.25
  L 343.75 42.25
  A 21.35 21.35 0.0 0 1 365.10 63.60
  L 365.10 268.14
  Z
  M 352.19 252.80
  L 352.19 79.40
  A 25.16 25.16 0.0 0 0 327.03 54.24
  L 111.37 54.24
  A 31.38 21.78 0.0 0 0 79.99 76.02
  L 79.99 256.18
  A 31.38 21.78 -0.0 0 0 111.37 277.96
  L 327.03 277.96
  A 25.16 25.16 0.0 0 0 352.19 252.80
  Z"
/>
<path fill="#000000" d="
  M 221.44 102.66
  A 13.58 13.58 0.0 0 1 230.63 85.80
  L 240.49 82.90
  A 31.28 28.89 -16.4 0 1 278.66 101.78
  L 278.70 101.93
  A 31.28 28.89 -16.4 0 1 256.85 138.48
  L 246.99 141.38
  A 13.58 13.58 0.0 0 1 230.13 132.19
  L 221.44 102.66
  Z"
/>
<path fill="#000000" d="
  M 148.90 174.16
  C 157.34 180.06 167.45 184.57 177.75 182.02
  C 183.20 180.67 188.22 174.70 192.30 170.81
  C 207.14 156.67 221.05 170.78 232.28 181.30
  Q 237.51 186.20 240.93 187.73
  C 254.11 193.67 268.52 186.27 281.66 193.95
  Q 284.86 195.81 292.89 203.10
  C 301.55 210.96 311.18 220.95 314.48 231.74
  Q 316.99 239.92 316.72 244.99
  Q 316.45 249.92 311.01 249.75
  C 278.42 248.74 245.84 249.10 213.25 248.59
  Q 169.12 247.90 125.00 247.18
  C 119.10 247.08 112.88 245.74 109.17 241.33
  Q 105.31 236.75 108.24 230.65
  Q 116.07 214.40 123.80 198.10
  C 128.62 187.94 137.00 181.40 145.41 174.41
  Q 147.17 172.95 148.90 174.16
  Z"
/>
</svg>
